{
	"asset":{
		"version":"2.0",
		"generator":"Created using the official Cinema 4D glTF Exporter 1.000x284978"
	},
	"scenes":[{
		"nodes":[0]
	}],
	"nodes":[{
		"name":"Null.1",
		"translation":[-49.91080093383789,
		3.004776954650879,
		0.04098609834909439],
		"rotation":[0.0,
		0.0,
		0.0,
		-1.0],
		"scale":[1.0,
		1.0,
		1.0],
		"children":[1,
		2,
		3]
	},
	{
		"name":"Icecream",
		"translation":[0.6911385655403137,
		20.08437728881836,
		0.3302379250526428],
		"rotation":[3.8941439584050388e-7,
		2.7524743890909067e-14,
		7.068241103524997e-8,
		-1.0],
		"scale":[1.8489899635314942,
		1.8489899635314942,
		1.8489899635314942],
		"mesh":0
	},
	{
		"name":"Corneto",
		"translation":[-0.33433789014816286,
		-8.065269470214844,
		-0.16629353165626527],
		"rotation":[-3.8941436741879445e-7,
		5.846084521424905e-14,
		1.5012503240541265e-7,
		1.0],
		"scale":[1.8489899635314942,
		1.8489899635314942,
		1.8489899635314942],
		"mesh":1
	},
	{
		"name":"Sphere.1",
		"translation":[-0.3568006753921509,
		-10.33469009399414,
		-0.16394439339637757],
		"rotation":[0.0,
		0.0,
		0.0,
		-1.0],
		"scale":[0.04067777842283249,
		0.04067777842283249,
		0.04067777842283249],
		"mesh":2
	}],
	"meshes":[{
		"name":"Icecream",
		"primitives":[{
			"attributes":{
				"POSITION":1,
				"TEXCOORD_0":2
			},
			"indices":0,
			"material":0
		}]
	},
	{
		"name":"Corneto",
		"primitives":[{
			"attributes":{
				"POSITION":4,
				"TEXCOORD_0":5
			},
			"indices":3,
			"material":1
		}]
	},
	{
		"name":"Sphere.1",
		"primitives":[{
			"attributes":{
				"POSITION":7,
				"TEXCOORD_0":8
			},
			"indices":6,
			"material":2
		}]
	}],
	"accessors":[{
		"bufferView":0,
		"type":"SCALAR",
		"componentType":5123,
		"min":[0],
		"count":67872,
		"byteOffset":0,
		"max":[13591]
	},
	{
		"bufferView":1,
		"type":"VEC3",
		"componentType":5126,
		"min":[-3.931138277053833,
		-0.46793466806411745,
		-4.008342742919922],
		"count":13592,
		"byteOffset":0,
		"max":[3.531740188598633,
		11.362787246704102,
		3.765532970428467]
	},
	{
		"bufferView":1,
		"type":"VEC2",
		"componentType":5126,
		"min":[0.0,
		0.0],
		"count":13592,
		"byteOffset":12,
		"max":[0.9961089491844177,
		0.996108889579773]
	},
	{
		"bufferView":2,
		"type":"SCALAR",
		"componentType":5123,
		"min":[0],
		"count":7344,
		"byteOffset":0,
		"max":[1371]
	},
	{
		"bufferView":3,
		"type":"VEC3",
		"componentType":5126,
		"min":[-3.22062087059021,
		-0.3706510066986084,
		-3.22062087059021],
		"count":1372,
		"byteOffset":0,
		"max":[3.22062087059021,
		16.417789459228517,
		3.22062087059021]
	},
	{
		"bufferView":3,
		"type":"VEC2",
		"componentType":5126,
		"min":[0.0,
		0.0],
		"count":1372,
		"byteOffset":12,
		"max":[0.9961089491844177,
		0.996108889579773]
	},
	{
		"bufferView":4,
		"type":"SCALAR",
		"componentType":5123,
		"min":[0],
		"count":1584,
		"byteOffset":0,
		"max":[324]
	},
	{
		"bufferView":5,
		"type":"VEC3",
		"componentType":5126,
		"min":[-100.0,
		-100.0,
		-100.0],
		"count":325,
		"byteOffset":0,
		"max":[100.0,
		100.0,
		100.0]
	},
	{
		"bufferView":5,
		"type":"VEC2",
		"componentType":5126,
		"min":[0.0014540894189849496,
		0.0013029323890805245],
		"count":325,
		"byteOffset":12,
		"max":[0.9961089491844177,
		0.996108889579773]
	}],
	"bufferViews":[{
		"buffer":0,
		"byteLength":135744,
		"byteOffset":0,
		"target":34963
	},
	{
		"buffer":0,
		"byteLength":271840,
		"byteOffset":135744,
		"target":34962,
		"byteStride":20
	},
	{
		"buffer":1,
		"byteLength":14688,
		"byteOffset":0,
		"target":34963
	},
	{
		"buffer":1,
		"byteLength":27440,
		"byteOffset":14688,
		"target":34962,
		"byteStride":20
	},
	{
		"buffer":2,
		"byteLength":3168,
		"byteOffset":0,
		"target":34963
	},
	{
		"buffer":2,
		"byteLength":6500,
		"byteOffset":3168,
		"target":34962,
		"byteStride":20
	}],
	"buffers":[{
		"uri":"data:application/octet-stream;base64,",
		"byteLength":407584
	},
	{
		"uri":"data:application/octet-stream;base64,",
		"byteLength":42128
	},
	{
		"uri":"data:application/octet-stream;base64,",
		"byteLength":9668
	}],
	"images":[{
		"uri":"data:image/jpeg;base64,"
	},
	{
		"uri":"data:image/jpeg;base64,"
	},
	{
		"uri":"data:image/jpeg;base64,"
	}],
	"samplers":[{
		"magFilter":9729,
		"minFilter":9729,
		"wrapS":10497,
		"wrapT":10497
	},
	{
		"magFilter":9729,
		"minFilter":9729,
		"wrapS":10497,
		"wrapT":10497
	},
	{
		"magFilter":9729,
		"minFilter":9729,
		"wrapS":10497,
		"wrapT":10497
	}],
	"textures":[{
		"sampler":0,
		"source":0
	},
	{
		"sampler":1,
		"source":1
	},
	{
		"sampler":2,
		"source":2
	}],
	"materials":[{
		"pbrMetallicRoughness":{
			"baseColorTexture":{
				"index":0
			},
			"baseColorFactor":[0.8,
			0.8,
			0.8,
			1.0],
			"metallicFactor":1.0,
			"roughnessFactor":1.0
		},
		"emissiveFactor":[0.0,
		0.0,
		0.0],
		"alphaMode":"OPAQUE",
		"doubleSided":false,
		"name":"Icecream.1"
	},
	{
		"pbrMetallicRoughness":{
			"baseColorTexture":{
				"index":1
			},
			"baseColorFactor":[0.8,
			0.8,
			0.8,
			1.0],
			"metallicFactor":0.0,
			"roughnessFactor":0.5
		},
		"emissiveFactor":[0.0,
		0.0,
		0.0],
		"alphaMode":"OPAQUE",
		"doubleSided":false,
		"name":"Corneto.1"
	},
	{
		"pbrMetallicRoughness":{
			"baseColorFactor":[1.0,
			1.0,
			1.0,
			1.0],
			"metallicFactor":1.0,
			"roughnessFactor":1.0
		},
		"emissiveTexture":{
			"index":2
		},
		"emissiveFactor":[1.0,
		1.0,
		1.0],
		"alphaMode":"OPAQUE",
		"doubleSided":false,
		"name":"Sphere.1"
	}]
}