{
	"asset":{
		"version":"2.0",
		"generator":"Created using the official Cinema 4D glTF Exporter 1.000x284978"
	},
	"scenes":[{
		"nodes":[0]
	}],
	"nodes":[{
		"name":"Null",
		"translation":[0.0,
		0.0,
		0.0],
		"rotation":[0.0,
		-0.04001545533537865,
		0.0,
		0.9991990327835083],
		"scale":[1.0,
		1.0,
		1.0],
		"children":[1]
	},
	{
		"name":"Null",
		"translation":[-65.88516998291016,
		0.0,
		-25.467313766479493],
		"rotation":[3.839139839367789e-10,
		-0.036435842514038089,
		-1.0529715765983383e-8,
		0.9993360042572022],
		"scale":[1.0,
		1.0,
		1.0],
		"children":[2,
		3,
		4,
		5]
	},
	{
		"name":"Sphere.1",
		"translation":[-0.1447279304265976,
		-4.875272750854492,
		-0.06650024652481079],
		"rotation":[0.0,
		0.0,
		0.0,
		-1.0],
		"scale":[0.02199999988079071,
		0.02199999988079071,
		0.02199999988079071],
		"mesh":0
	},
	{
		"name":"Corneto",
		"translation":[-0.1325792521238327,
		-2.7368955612182619,
		-0.06777074933052063],
		"rotation":[-3.8941436741879445e-7,
		5.846084521424905e-14,
		1.5012503240541265e-7,
		1.0],
		"scale":[1.0,
		1.0,
		1.0],
		"mesh":1
	},
	{
		"name":"Icecream",
		"translation":[0.4220351278781891,
		12.487441062927246,
		0.2007712423801422],
		"rotation":[3.8941439584050388e-7,
		2.7371407210533516e-14,
		7.028863535651908e-8,
		-1.0],
		"scale":[1.0,
		1.0,
		1.0],
		"mesh":2
	},
	{
		"name":"Sphere",
		"translation":[-0.1447279304265976,
		-4.875272750854492,
		-0.06650024652481079],
		"rotation":[0.0,
		0.0,
		0.0,
		-1.0],
		"scale":[0.02199999988079071,
		0.02199999988079071,
		0.02199999988079071],
		"mesh":3
	}],
	"meshes":[{
		"name":"Sphere.1",
		"primitives":[{
			"attributes":{
				"POSITION":5,
				"NORMAL":6,
				"TEXCOORD_0":7
			},
			"indices":4,
			"material":0
		}]
	},
	{
		"name":"Corneto",
		"primitives":[{
			"attributes":{
				"POSITION":9,
				"NORMAL":10,
				"TEXCOORD_0":11
			},
			"indices":8,
			"material":1
		}]
	},
	{
		"name":"Icecream",
		"primitives":[{
			"attributes":{
				"POSITION":13,
				"NORMAL":14,
				"TEXCOORD_0":15
			},
			"indices":12,
			"material":2
		}]
	},
	{
		"name":"Sphere",
		"primitives":[{
			"attributes":{
				"POSITION":17,
				"NORMAL":18,
				"TEXCOORD_0":19
			},
			"indices":16,
			"material":3
		}]
	}],
	"accessors":[{
		"bufferView":0,
		"type":"SCALAR",
		"componentType":5126,
		"min":[0.0],
		"count":301,
		"byteOffset":0,
		"max":[12.0]
	},
	{
		"bufferView":0,
		"type":"VEC4",
		"componentType":5126,
		"min":[0.0,
		-1.0,
		0.0,
		-1.0],
		"count":301,
		"byteOffset":1204,
		"max":[0.0,
		0.0,
		0.0,
		1.0]
	},
	{
		"bufferView":1,
		"type":"SCALAR",
		"componentType":5126,
		"min":[0.0],
		"count":301,
		"byteOffset":0,
		"max":[12.0]
	},
	{
		"bufferView":1,
		"type":"VEC4",
		"componentType":5126,
		"min":[0.0,
		-0.999968945980072,
		-7.450555283838867e-9,
		-1.0],
		"count":301,
		"byteOffset":1204,
		"max":[7.422629622055865e-9,
		0.0,
		7.448622607597599e-9,
		1.0]
	},
	{
		"bufferView":2,
		"type":"SCALAR",
		"componentType":5123,
		"min":[0],
		"count":1584,
		"byteOffset":0,
		"max":[322]
	},
	{
		"bufferView":3,
		"type":"VEC3",
		"componentType":5126,
		"min":[-100.0,
		-100.0,
		-100.0],
		"count":323,
		"byteOffset":0,
		"max":[100.0,
		100.0,
		100.0]
	},
	{
		"bufferView":3,
		"type":"VEC3",
		"componentType":5126,
		"min":[-1.0,
		-1.0,
		-1.0],
		"count":323,
		"byteOffset":12,
		"max":[1.0,
		1.0,
		1.0]
	},
	{
		"bufferView":3,
		"type":"VEC2",
		"componentType":5126,
		"min":[0.0,
		0.0],
		"count":323,
		"byteOffset":24,
		"max":[1.0,
		1.0]
	},
	{
		"bufferView":4,
		"type":"SCALAR",
		"componentType":5123,
		"min":[0],
		"count":7344,
		"byteOffset":0,
		"max":[1368]
	},
	{
		"bufferView":5,
		"type":"VEC3",
		"componentType":5126,
		"min":[-3.22062087059021,
		-0.3706510066986084,
		-3.22062087059021],
		"count":1369,
		"byteOffset":0,
		"max":[3.22062087059021,
		16.417789459228517,
		3.22062087059021]
	},
	{
		"bufferView":5,
		"type":"VEC3",
		"componentType":5126,
		"min":[-0.9999979734420776,
		-1.0,
		-0.9999979734420776],
		"count":1369,
		"byteOffset":12,
		"max":[0.9999979734420776,
		1.0,
		0.9999979734420776]
	},
	{
		"bufferView":5,
		"type":"VEC2",
		"componentType":5126,
		"min":[0.0,
		0.0],
		"count":1369,
		"byteOffset":24,
		"max":[1.0,
		1.0]
	},
	{
		"bufferView":6,
		"type":"SCALAR",
		"componentType":5123,
		"min":[0],
		"count":67872,
		"byteOffset":0,
		"max":[11704]
	},
	{
		"bufferView":7,
		"type":"VEC3",
		"componentType":5126,
		"min":[-3.931138277053833,
		-0.46793466806411745,
		-4.008342742919922],
		"count":11705,
		"byteOffset":0,
		"max":[3.531740188598633,
		11.362787246704102,
		3.765532970428467]
	},
	{
		"bufferView":7,
		"type":"VEC3",
		"componentType":5126,
		"min":[-0.9994988441467285,
		-0.9997849464416504,
		-0.9991853833198547],
		"count":11705,
		"byteOffset":12,
		"max":[0.9998947978019714,
		0.9990887641906738,
		0.9996303915977478]
	},
	{
		"bufferView":7,
		"type":"VEC2",
		"componentType":5126,
		"min":[0.0,
		0.0],
		"count":11705,
		"byteOffset":24,
		"max":[1.0,
		1.0]
	},
	{
		"bufferView":8,
		"type":"SCALAR",
		"componentType":5123,
		"min":[0],
		"count":1584,
		"byteOffset":0,
		"max":[322]
	},
	{
		"bufferView":9,
		"type":"VEC3",
		"componentType":5126,
		"min":[-100.0,
		-100.0,
		-100.0],
		"count":323,
		"byteOffset":0,
		"max":[100.0,
		100.0,
		100.0]
	},
	{
		"bufferView":9,
		"type":"VEC3",
		"componentType":5126,
		"min":[-1.0,
		-1.0,
		-1.0],
		"count":323,
		"byteOffset":12,
		"max":[1.0,
		1.0,
		1.0]
	},
	{
		"bufferView":9,
		"type":"VEC2",
		"componentType":5126,
		"min":[0.0,
		0.0],
		"count":323,
		"byteOffset":24,
		"max":[1.0,
		1.0]
	}],
	"bufferViews":[{
		"buffer":0,
		"byteLength":6020,
		"byteOffset":0
	},
	{
		"buffer":1,
		"byteLength":6020,
		"byteOffset":0
	},
	{
		"buffer":2,
		"byteLength":3168,
		"byteOffset":0,
		"target":34963
	},
	{
		"buffer":2,
		"byteLength":10336,
		"byteOffset":3168,
		"target":34962,
		"byteStride":32
	},
	{
		"buffer":3,
		"byteLength":14688,
		"byteOffset":0,
		"target":34963
	},
	{
		"buffer":3,
		"byteLength":43808,
		"byteOffset":14688,
		"target":34962,
		"byteStride":32
	},
	{
		"buffer":4,
		"byteLength":135744,
		"byteOffset":0,
		"target":34963
	},
	{
		"buffer":4,
		"byteLength":374560,
		"byteOffset":135744,
		"target":34962,
		"byteStride":32
	},
	{
		"buffer":5,
		"byteLength":3168,
		"byteOffset":0,
		"target":34963
	},
	{
		"buffer":5,
		"byteLength":10336,
		"byteOffset":3168,
		"target":34962,
		"byteStride":32
	}],
	"buffers":[{
		"uri":"data:application/octet-stream;base64,",
		"byteLength":6020
	},
	{
		"uri":"data:application/octet-stream;base64,",
		"byteLength":6020
	},
	{
		"uri":"data:application/octet-stream;base64,",
		"byteLength":13504
	},
	{
		"uri":"data:application/octet-stream;base64,",
		"byteLength":58496
	},
	{
		"uri":"data:application/octet-stream;base64,",
		"byteLength":510304
	},
	{
		"uri":"data:application/octet-stream;base64,",
		"byteLength":13504
	}],
	"images":[{
		"uri":"data:image/jpeg;base64,"
	},
	{
		"uri":"data:image/jpeg;base64,"
	},
	{
		"uri":"data:image/jpeg;base64,"
	},
	{
		"uri":"data:image/jpeg;base64,"
	},
	{
		"uri":"data:image/jpeg;base64,"
	},
	{
		"uri":"data:image/jpeg;base64,"
	},
	{
		"uri":"data:image/jpeg;base64,"
	},
	{
		"uri":"data:image/jpeg;base64,"
	},
	{
		"uri":"data:image/jpeg;base64,"
	}],
	"samplers":[{
		"magFilter":9729,
		"minFilter":9729,
		"wrapS":10497,
		"wrapT":10497
	},
	{
		"magFilter":9729,
		"minFilter":9729,
		"wrapS":10497,
		"wrapT":10497
	},
	{
		"magFilter":9729,
		"minFilter":9729,
		"wrapS":10497,
		"wrapT":10497
	},
	{
		"magFilter":9729,
		"minFilter":9729,
		"wrapS":10497,
		"wrapT":10497
	},
	{
		"magFilter":9729,
		"minFilter":9729,
		"wrapS":10497,
		"wrapT":10497
	},
	{
		"magFilter":9729,
		"minFilter":9729,
		"wrapS":10497,
		"wrapT":10497
	},
	{
		"magFilter":9729,
		"minFilter":9729,
		"wrapS":10497,
		"wrapT":10497
	},
	{
		"magFilter":9729,
		"minFilter":9729,
		"wrapS":10497,
		"wrapT":10497
	},
	{
		"magFilter":9729,
		"minFilter":9729,
		"wrapS":10497,
		"wrapT":10497
	}],
	"textures":[{
		"sampler":0,
		"source":0
	},
	{
		"sampler":1,
		"source":1
	},
	{
		"sampler":2,
		"source":2
	},
	{
		"sampler":3,
		"source":3
	},
	{
		"sampler":4,
		"source":4
	},
	{
		"sampler":5,
		"source":5
	},
	{
		"sampler":6,
		"source":6
	},
	{
		"sampler":7,
		"source":7
	},
	{
		"sampler":8,
		"source":8
	}],
	"materials":[{
		"pbrMetallicRoughness":{
			"baseColorFactor":[1.0,
			1.0,
			1.0,
			1.0],
			"metallicFactor":0.0,
			"roughnessFactor":0.5
		},
		"alphaMode":"OPAQUE",
		"normalTexture":{
			"index":0,
			"scale":1.0
		},
		"emissiveTexture":{
			"index":2
		},
		"occlusionTexture":{
			"index":1,
			"strength":1.0
		},
		"emissiveFactor":[1.0,
		1.0,
		1.0],
		"doubleSided":false,
		"name":"Sphere"
	},
	{
		"pbrMetallicRoughness":{
			"baseColorFactor":[1.0,
			1.0,
			1.0,
			1.0],
			"metallicFactor":0.0,
			"roughnessFactor":0.5
		},
		"alphaMode":"OPAQUE",
		"normalTexture":{
			"index":3,
			"scale":1.0
		},
		"emissiveTexture":{
			"index":5
		},
		"occlusionTexture":{
			"index":4,
			"strength":1.0
		},
		"emissiveFactor":[1.0,
		1.0,
		1.0],
		"doubleSided":false,
		"name":"Corneto"
	},
	{
		"pbrMetallicRoughness":{
			"baseColorFactor":[1.0,
			1.0,
			1.0,
			1.0],
			"metallicFactor":0.0,
			"roughnessFactor":0.5
		},
		"alphaMode":"OPAQUE",
		"normalTexture":{
			"index":6,
			"scale":1.0
		},
		"emissiveTexture":{
			"index":8
		},
		"occlusionTexture":{
			"index":7,
			"strength":1.0
		},
		"emissiveFactor":[1.0,
		1.0,
		1.0],
		"doubleSided":false,
		"name":"Icecream"
	},
	{
		"pbrMetallicRoughness":{
			"baseColorFactor":[1.0,
			1.0,
			1.0,
			0.0],
			"metallicFactor":1.0,
			"roughnessFactor":1.0
		},
		"emissiveFactor":[0.25,
		1.0,
		0.0],
		"alphaMode":"BLEND",
		"doubleSided":false,
		"name":"Mat"
	}],
	"animations":[{
		"samplers":[{
			"input":0,
			"interpolation":"LINEAR",
			"output":1
		},
		{
			"input":2,
			"interpolation":"LINEAR",
			"output":3
		}],
		"channels":[{
			"sampler":0,
			"target":{
				"node":0,
				"path":"rotation"
			}
		},
		{
			"sampler":1,
			"target":{
				"node":1,
				"path":"rotation"
			}
		}]
	}]
}