{
	"asset":{
		"version":"2.0",
		"generator":"Created using the official Cinema 4D glTF Exporter 1.000x284978"
	},
	"scenes":[{
		"nodes":[0]
	}],
	"nodes":[{
		"name":"Null",
		"translation":[-50.0,
		0.0,
		0.0],
		"rotation":[0.0,
		0.0,
		0.0,
		-1.0],
		"scale":[1.8489899635314942,
		1.8489899635314942,
		1.8489899635314942],
		"children":[1,
		2,
		3]
	},
	{
		"name":"Sphere.1",
		"translation":[-0.1447279304265976,
		-4.875272750854492,
		-0.06650024652481079],
		"rotation":[0.0,
		0.0,
		0.0,
		-1.0],
		"scale":[0.02199999988079071,
		0.02199999988079071,
		0.02199999988079071],
		"mesh":0
	},
	{
		"name":"Corneto",
		"translation":[-0.1325792521238327,
		-2.7368955612182619,
		-0.06777074933052063],
		"rotation":[-3.8941436741879445e-7,
		5.831668020662637e-14,
		1.497548112183722e-7,
		1.0],
		"scale":[1.0,
		1.0,
		1.0],
		"mesh":1
	},
	{
		"name":"Icecream",
		"translation":[0.4220351278781891,
		12.487441062927246,
		0.2007712423801422],
		"rotation":[3.8941439584050388e-7,
		2.737140212833583e-14,
		7.028863535651908e-8,
		-1.0],
		"scale":[1.0,
		1.0,
		1.0],
		"mesh":2
	}],
	"meshes":[{
		"name":"Sphere.1",
		"primitives":[{
			"attributes":{
				"POSITION":3,
				"TEXCOORD_0":4
			},
			"indices":2,
			"material":0
		}]
	},
	{
		"name":"Corneto",
		"primitives":[{
			"attributes":{
				"POSITION":6,
				"TEXCOORD_0":7
			},
			"indices":5,
			"material":1
		}]
	},
	{
		"name":"Icecream",
		"primitives":[{
			"attributes":{
				"POSITION":9,
				"TEXCOORD_0":10
			},
			"indices":8,
			"material":2
		}]
	}],
	"accessors":[{
		"bufferView":0,
		"type":"SCALAR",
		"componentType":5126,
		"min":[0.0],
		"count":301,
		"byteOffset":0,
		"max":[12.0]
	},
	{
		"bufferView":0,
		"type":"VEC4",
		"componentType":5126,
		"min":[0.0,
		-0.999968945980072,
		-9.551229140924989e-9,
		-1.0],
		"count":301,
		"byteOffset":1204,
		"max":[9.713161830404715e-9,
		0.0,
		1.0521968185628339e-8,
		1.0]
	},
	{
		"bufferView":1,
		"type":"SCALAR",
		"componentType":5123,
		"min":[0],
		"count":1584,
		"byteOffset":0,
		"max":[322]
	},
	{
		"bufferView":2,
		"type":"VEC3",
		"componentType":5126,
		"min":[-100.0,
		-100.0,
		-100.0],
		"count":323,
		"byteOffset":0,
		"max":[100.0,
		100.0,
		100.0]
	},
	{
		"bufferView":2,
		"type":"VEC2",
		"componentType":5126,
		"min":[0.0,
		0.0],
		"count":323,
		"byteOffset":12,
		"max":[1.0,
		1.0]
	},
	{
		"bufferView":3,
		"type":"SCALAR",
		"componentType":5123,
		"min":[0],
		"count":7344,
		"byteOffset":0,
		"max":[1368]
	},
	{
		"bufferView":4,
		"type":"VEC3",
		"componentType":5126,
		"min":[-3.22062087059021,
		-0.3706510066986084,
		-3.22062087059021],
		"count":1369,
		"byteOffset":0,
		"max":[3.22062087059021,
		16.417789459228517,
		3.22062087059021]
	},
	{
		"bufferView":4,
		"type":"VEC2",
		"componentType":5126,
		"min":[0.0,
		0.0],
		"count":1369,
		"byteOffset":12,
		"max":[1.0,
		1.0]
	},
	{
		"bufferView":5,
		"type":"SCALAR",
		"componentType":5123,
		"min":[0],
		"count":67872,
		"byteOffset":0,
		"max":[11677]
	},
	{
		"bufferView":6,
		"type":"VEC3",
		"componentType":5126,
		"min":[-3.931138277053833,
		-0.46793466806411745,
		-4.008342742919922],
		"count":11678,
		"byteOffset":0,
		"max":[3.531740188598633,
		11.362787246704102,
		3.765532970428467]
	},
	{
		"bufferView":6,
		"type":"VEC2",
		"componentType":5126,
		"min":[0.0,
		0.0],
		"count":11678,
		"byteOffset":12,
		"max":[1.0,
		1.0]
	}],
	"bufferViews":[{
		"buffer":0,
		"byteLength":6020,
		"byteOffset":0
	},
	{
		"buffer":1,
		"byteLength":3168,
		"byteOffset":0,
		"target":34963
	},
	{
		"buffer":1,
		"byteLength":6460,
		"byteOffset":3168,
		"target":34962,
		"byteStride":20
	},
	{
		"buffer":2,
		"byteLength":14688,
		"byteOffset":0,
		"target":34963
	},
	{
		"buffer":2,
		"byteLength":27380,
		"byteOffset":14688,
		"target":34962,
		"byteStride":20
	},
	{
		"buffer":3,
		"byteLength":135744,
		"byteOffset":0,
		"target":34963
	},
	{
		"buffer":3,
		"byteLength":233560,
		"byteOffset":135744,
		"target":34962,
		"byteStride":20
	}],
	"buffers":[{
		"uri":"data:application/octet-stream;base64,",
		"byteLength":6020
	},
	{
		"uri":"data:application/octet-stream;base64,",
		"byteLength":9628
	},
	{
		"uri":"data:application/octet-stream;base64,",
		"byteLength":42068
	},
	{
		"uri":"data:application/octet-stream;base64,",
		"byteLength":369304
	}],
	"images":[{
		"uri":"data:image/jpeg;base64,"
	},
	{
		"uri":"data:image/jpeg;base64,"
	},
	{
		"uri":"data:image/jpeg;base64,"
	},
	{
		"uri":"data:image/jpeg;base64,"
	},
	{
		"uri":"data:image/jpeg;base64,"
	}],
	"samplers":[{
		"magFilter":9729,
		"minFilter":9729,
		"wrapS":10497,
		"wrapT":10497
	},
	{
		"magFilter":9729,
		"minFilter":9729,
		"wrapS":10497,
		"wrapT":10497
	},
	{
		"magFilter":9729,
		"minFilter":9729,
		"wrapS":10497,
		"wrapT":10497
	},
	{
		"magFilter":9729,
		"minFilter":9729,
		"wrapS":10497,
		"wrapT":10497
	},
	{
		"magFilter":9729,
		"minFilter":9729,
		"wrapS":10497,
		"wrapT":10497
	}],
	"textures":[{
		"sampler":0,
		"source":0
	},
	{
		"sampler":1,
		"source":1
	},
	{
		"sampler":2,
		"source":2
	},
	{
		"sampler":3,
		"source":3
	},
	{
		"sampler":4,
		"source":4
	}],
	"materials":[{
		"pbrMetallicRoughness":{
			"baseColorFactor":[1.0,
			1.0,
			1.0,
			1.0],
			"metallicFactor":0.0,
			"roughnessFactor":0.5
		},
		"alphaMode":"OPAQUE",
		"normalTexture":{
			"index":0,
			"scale":1.0
		},
		"emissiveTexture":{
			"index":2
		},
		"occlusionTexture":{
			"index":1,
			"strength":1.0
		},
		"emissiveFactor":[1.0,
		1.0,
		1.0],
		"doubleSided":false,
		"name":"Sphere"
	},
	{
		"pbrMetallicRoughness":{
			"baseColorTexture":{
				"index":3
			},
			"baseColorFactor":[0.8,
			0.8,
			0.8,
			1.0],
			"metallicFactor":1.0,
			"roughnessFactor":1.0
		},
		"emissiveFactor":[0.0,
		0.0,
		0.0],
		"alphaMode":"OPAQUE",
		"doubleSided":false,
		"name":"Corneto"
	},
	{
		"pbrMetallicRoughness":{
			"baseColorTexture":{
				"index":4
			},
			"baseColorFactor":[0.8,
			0.8,
			0.8,
			1.0],
			"metallicFactor":1.0,
			"roughnessFactor":1.0
		},
		"emissiveFactor":[0.0,
		0.0,
		0.0],
		"alphaMode":"OPAQUE",
		"doubleSided":false,
		"name":"Icecream"
	}],
	"animations":[{
		"samplers":[{
			"input":0,
			"interpolation":"LINEAR",
			"output":1
		}],
		"channels":[{
			"sampler":0,
			"target":{
				"node":0,
				"path":"rotation"
			}
		}]
	}]
}