{
    "asset" : {
        "generator" : "Khronos glTF Blender I/O v1.6.16",
        "version" : "2.0"
    },
    "extensionsUsed" : [
        "KHR_materials_clearcoat"
    ],
    "scene" : 0,
    "scenes" : [
        {
            "name" : "Scene",
            "nodes" : [
                4,
                5,
                6
            ]
        }
    ],
    "nodes" : [
        {
            "mesh" : 0,
            "name" : "polySurface2_phong1_0",
            "translation" : [
                -31.387685775756836,
                0,
                0
            ]
        },
        {
            "children" : [
                0
            ],
            "name" : "polySurface2"
        },
        {
            "children" : [
                1
            ],
            "name" : "RootNode"
        },
        {
            "children" : [
                2
            ],
            "name" : "b41f321ba24f45598cf6b69fb01a64da.fbx",
            "rotation" : [
                0.7071068286895752,
                0,
                0,
                0.7071068286895752
            ]
        },
        {
            "children" : [
                3
            ],
            "name" : "Sketchfab_model",
            "rotation" : [
                -0.7071068286895752,
                0,
                0,
                0.7071068286895752
            ]
        },
        {
            "name" : "Light",
            "rotation" : [
                0.16907575726509094,
                0.7558803558349609,
                -0.27217137813568115,
                0.570947527885437
            ],
            "translation" : [
                4.076245307922363,
                5.903861999511719,
                -1.0054539442062378
            ]
        },
        {
            "name" : "Camera",
            "rotation" : [
                0.483536034822464,
                0.33687159419059753,
                -0.20870360732078552,
                0.7804827094078064
            ],
            "translation" : [
                7.358891487121582,
                4.958309173583984,
                6.925790786743164
            ]
        }
    ],
    "materials" : [
        {
            "doubleSided" : true,
            "extensions" : {
                "KHR_materials_clearcoat" : {
                    "clearcoatFactor" : 0.21451610326766968,
                    "clearcoatRoughnessFactor" : 0
                }
            },
            "name" : "phong1",
            "pbrMetallicRoughness" : {
                "baseColorFactor" : [
                    0.97453773021698,
                    0.97453773021698,
                    0.97453773021698,
                    1
                ],
                "baseColorTexture" : {
                    "index" : 0
                },
                "metallicFactor" : 0.9076558351516724,
                "roughnessFactor" : 0.1050729900598526
            }
        }
    ],
    "meshes" : [
        {
            "name" : "polySurface2_phong1_0",
            "primitives" : [
                {
                    "attributes" : {
                        "POSITION" : 0,
                        "NORMAL" : 1,
                        "TEXCOORD_0" : 2
                    },
                    "indices" : 3,
                    "material" : 0
                }
            ]
        }
    ],
    "textures" : [
        {
            "sampler" : 0,
            "source" : 0
        }
    ],
    "images" : [
        {
            "bufferView" : 4,
            "mimeType" : "image/jpeg",
            "name" : "phong1_baseColor"
        }
    ],
    "accessors" : [
        {
            "bufferView" : 0,
            "componentType" : 5126,
            "count" : 19040,
            "max" : [
                6.042773246765137,
                30.66476058959961,
                6.042773723602295
            ],
            "min" : [
                -6.042774677276611,
                4.447783470153809,
                -6.042776107788086
            ],
            "type" : "VEC3"
        },
        {
            "bufferView" : 1,
            "componentType" : 5126,
            "count" : 19040,
            "type" : "VEC3"
        },
        {
            "bufferView" : 2,
            "componentType" : 5126,
            "count" : 19040,
            "type" : "VEC2"
        },
        {
            "bufferView" : 3,
            "componentType" : 5123,
            "count" : 88578,
            "type" : "SCALAR"
        }
    ],
    "bufferViews" : [
        {
            "buffer" : 0,
            "byteLength" : 228480,
            "byteOffset" : 0
        },
        {
            "buffer" : 0,
            "byteLength" : 228480,
            "byteOffset" : 228480
        },
        {
            "buffer" : 0,
            "byteLength" : 152320,
            "byteOffset" : 456960
        },
        {
            "buffer" : 0,
            "byteLength" : 177156,
            "byteOffset" : 609280
        },
        {
            "buffer" : 0,
            "byteLength" : 531545,
            "byteOffset" : 786436
        }
    ],
    "samplers" : [
        {
            "magFilter" : 9729,
            "minFilter" : 9987
        }
    ],
    "buffers" : [
        {
            "byteLength" : 1317984,
            "uri" : "data:application/octet-stream;base64,"
        }
    ]
}
