{
	"asset":{
		"version":"2.0",
		"generator":"Created using the official Cinema 4D glTF Exporter 1.000x284978"
	},
	"scenes":[{
		"nodes":[0]
	}],
	"nodes":[{
		"translation":[-6.241392135620117,
		-5.172203063964844,
		-6.04200553894043],
		"name":"Null",
		"rotation":[0.0,
		0.0,
		0.0,
		-1.0],
		"scale":[1.0,
		1.0,
		1.0],
		"children":[1,
		2,
		3,
		4]
	},
	{
		"translation":[-10.534881591796875,
		-21.271791458129884,
		-24.16802215576172],
		"name":"Sphere",
		"rotation":[0.0,
		0.0,
		0.0,
		-1.0],
		"scale":[1.0,
		1.0,
		1.0],
		"mesh":0
	},
	{
		"translation":[-14.430686950683594,
		-21.271791458129884,
		0.0],
		"name":"Sphere_1",
		"rotation":[0.0,
		0.0,
		0.0,
		-1.0],
		"scale":[1.0,
		1.0,
		1.0],
		"mesh":1
	},
	{
		"translation":[0.0,
		0.0,
		0.0],
		"name":"Sphere_2",
		"rotation":[0.0,
		0.0,
		0.0,
		-1.0],
		"scale":[1.0,
		1.0,
		1.0],
		"mesh":2
	},
	{
		"translation":[0.0,
		21.854768753051759,
		0.0],
		"name":"Plane",
		"rotation":[0.0,
		0.0,
		0.0,
		-1.0],
		"scale":[1.0,
		1.0,
		1.0],
		"mesh":3
	}],
	"meshes":[{
		"name":"Sphere",
		"primitives":[{
			"attributes":{
				"POSITION":1,
				"TEXCOORD_0":3,
				"NORMAL":2
			},
			"indices":0
		}]
	},
	{
		"name":"Sphere_1",
		"primitives":[{
			"attributes":{
				"POSITION":5,
				"TEXCOORD_0":7,
				"NORMAL":6
			},
			"indices":4
		}]
	},
	{
		"name":"Sphere_2",
		"primitives":[{
			"attributes":{
				"POSITION":9,
				"TEXCOORD_0":11,
				"NORMAL":10
			},
			"indices":8
		}]
	},
	{
		"name":"Plane",
		"primitives":[{
			"attributes":{
				"POSITION":13,
				"TEXCOORD_0":15,
				"NORMAL":14
			},
			"indices":12
		}]
	}],
	"accessors":[{
		"bufferView":0,
		"type":"SCALAR",
		"componentType":5123,
		"count":672,
		"byteOffset":0,
		"min":[0],
		"max":[150]
	},
	{
		"bufferView":1,
		"type":"VEC3",
		"componentType":5126,
		"count":151,
		"byteOffset":0,
		"min":[-10.0,
		-10.0,
		-10.0],
		"max":[10.0,
		10.0,
		10.0]
	},
	{
		"bufferView":1,
		"type":"VEC3",
		"componentType":5126,
		"count":151,
		"byteOffset":12,
		"min":[-0.9999688267707825,
		-1.0,
		-0.9999688267707825],
		"max":[0.9999688267707825,
		1.0,
		0.9999688267707825]
	},
	{
		"bufferView":1,
		"type":"VEC2",
		"componentType":5126,
		"count":151,
		"byteOffset":24,
		"min":[0.0,
		0.0],
		"max":[1.0,
		1.0]
	},
	{
		"bufferView":2,
		"type":"SCALAR",
		"componentType":5123,
		"count":672,
		"byteOffset":0,
		"min":[0],
		"max":[150]
	},
	{
		"bufferView":3,
		"type":"VEC3",
		"componentType":5126,
		"count":151,
		"byteOffset":0,
		"min":[-10.0,
		-10.0,
		-10.0],
		"max":[10.0,
		10.0,
		10.0]
	},
	{
		"bufferView":3,
		"type":"VEC3",
		"componentType":5126,
		"count":151,
		"byteOffset":12,
		"min":[-0.9999688267707825,
		-1.0,
		-0.9999688267707825],
		"max":[0.9999688267707825,
		1.0,
		0.9999688267707825]
	},
	{
		"bufferView":3,
		"type":"VEC2",
		"componentType":5126,
		"count":151,
		"byteOffset":24,
		"min":[0.0,
		0.0],
		"max":[1.0,
		1.0]
	},
	{
		"bufferView":4,
		"type":"SCALAR",
		"componentType":5123,
		"count":672,
		"byteOffset":0,
		"min":[0],
		"max":[150]
	},
	{
		"bufferView":5,
		"type":"VEC3",
		"componentType":5126,
		"count":151,
		"byteOffset":0,
		"min":[-10.0,
		-10.0,
		-10.0],
		"max":[10.0,
		10.0,
		10.0]
	},
	{
		"bufferView":5,
		"type":"VEC3",
		"componentType":5126,
		"count":151,
		"byteOffset":12,
		"min":[-0.9999688267707825,
		-1.0,
		-0.9999688267707825],
		"max":[0.9999688267707825,
		1.0,
		0.9999688267707825]
	},
	{
		"bufferView":5,
		"type":"VEC2",
		"componentType":5126,
		"count":151,
		"byteOffset":24,
		"min":[0.0,
		0.0],
		"max":[1.0,
		1.0]
	},
	{
		"bufferView":6,
		"type":"SCALAR",
		"componentType":5123,
		"count":27984,
		"byteOffset":0,
		"min":[0],
		"max":[9162]
	},
	{
		"bufferView":7,
		"type":"VEC3",
		"componentType":5126,
		"count":9163,
		"byteOffset":0,
		"min":[-20.5,
		-0.5,
		-20.5],
		"max":[20.5,
		0.5,
		20.5]
	},
	{
		"bufferView":7,
		"type":"VEC3",
		"componentType":5126,
		"count":9163,
		"byteOffset":12,
		"min":[-1.0,
		-1.0,
		-1.0],
		"max":[1.0,
		1.0,
		1.0]
	},
	{
		"bufferView":7,
		"type":"VEC2",
		"componentType":5126,
		"count":9163,
		"byteOffset":24,
		"min":[0.0,
		0.0],
		"max":[1.0,
		1.0]
	}],
	"bufferViews":[{
		"buffer":0,
		"byteOffset":0,
		"byteLength":1344,
		"target":34963
	},
	{
		"buffer":0,
		"byteOffset":1344,
		"byteLength":4832,
		"target":34962,
		"byteStride":32
	},
	{
		"buffer":1,
		"byteOffset":0,
		"byteLength":1344,
		"target":34963
	},
	{
		"buffer":1,
		"byteOffset":1344,
		"byteLength":4832,
		"target":34962,
		"byteStride":32
	},
	{
		"buffer":2,
		"byteOffset":0,
		"byteLength":1344,
		"target":34963
	},
	{
		"buffer":2,
		"byteOffset":1344,
		"byteLength":4832,
		"target":34962,
		"byteStride":32
	},
	{
		"buffer":3,
		"byteOffset":0,
		"byteLength":55968,
		"target":34963
	},
	{
		"buffer":3,
		"byteOffset":55968,
		"byteLength":293216,
		"target":34962,
		"byteStride":32
	}],
	"buffers":[{
		"byteLength":6176,
		"uri":"data:application/octet-stream;base64,"
	},
	{
		"byteLength":6176,
		"uri":"data:application/octet-stream;base64,"
	},
	{
		"byteLength":6176,
		"uri":"data:application/octet-stream;base64,"
	},
	{
		"byteLength":349184,
		"uri":"data:application/octet-stream;base64,"
	}]
}