{
	"asset":{
		"version":"2.0",
		"generator":"Created using the official Cinema 4D glTF Exporter 1.000x284978"
	},
	"textures":[{
		"sampler":0,
		"source":0
	},
	{
		"sampler":1,
		"source":1
	}],
	"scenes":[{
		"nodes":[0]
	}],
	"nodes":[{
		"name":"Default",
		"translation":[0.0,
		-0.8147789239883423,
		-10.88868236541748],
		"rotation":[0.6963642239570618,
		0.12278780341148377,
		0.12278780341148377,
		-0.6963642239570618],
		"scale":[1.0,
		1.0,
		1.0],
		"mesh":0
	}],
	"meshes":[{
		"name":"Default",
		"primitives":[{
			"attributes":{
				"POSITION":1,
				"TEXCOORD_0":2
			},
			"indices":0,
			"material":0
		}]
	}],
	"accessors":[{
		"bufferView":0,
		"type":"SCALAR",
		"componentType":5123,
		"byteOffset":0,
		"count":117504,
		"min":[0],
		"max":[20413]
	},
	{
		"bufferView":1,
		"type":"VEC3",
		"componentType":5126,
		"byteOffset":0,
		"count":20414,
		"min":[-0.625249981880188,
		-3.8441998958587648,
		-1.6308499574661255],
		"max":[0.625249981880188,
		3.8441998958587648,
		1.6308499574661255]
	},
	{
		"bufferView":1,
		"type":"VEC2",
		"componentType":5126,
		"byteOffset":12,
		"count":20414,
		"min":[0.01489999983459711,
		0.009800000116229058],
		"max":[0.9927999973297119,
		0.98580002784729]
	},
	{
		"bufferView":2,
		"type":"SCALAR",
		"componentType":5126,
		"byteOffset":0,
		"count":51,
		"min":[0.0],
		"max":[2.0]
	},
	{
		"bufferView":2,
		"type":"VEC4",
		"componentType":5126,
		"byteOffset":204,
		"count":51,
		"min":[-0.7070680260658264,
		0.007400537375360727,
		0.007400537375360727,
		-0.7070680260658264],
		"max":[0.7070680260658264,
		0.12278780341148377,
		0.12278780341148377,
		0.7070680260658264]
	}],
	"bufferViews":[{
		"buffer":0,
		"byteOffset":0,
		"byteLength":235008,
		"target":34963
	},
	{
		"buffer":0,
		"byteOffset":235008,
		"byteLength":408280,
		"target":34962,
		"byteStride":20
	},
	{
		"buffer":1,
		"byteOffset":0,
		"byteLength":1020
	}],
	"buffers":[{
		"uri":"data:application/octet-stream;base64,",
		"byteLength":643288
	},
	{
		"uri":"data:application/octet-stream;base64,",
		"byteLength":1020
	}],
	"images":[{
		"uri":"data:image/jpeg;base64,"
	},
	{
		"uri":"data:image/jpeg;base64,"
	}],
	"samplers":[{
		"magFilter":9729,
		"minFilter":9729,
		"wrapS":10497,
		"wrapT":10497
	},
	{
		"magFilter":9729,
		"minFilter":9729,
		"wrapS":10497,
		"wrapT":10497
	}],
	"materials":[{
		"pbrMetallicRoughness":{
			"baseColorTexture":{
				"index":0
			},
			"baseColorFactor":[1.0,
			1.0,
			1.0,
			1.0],
			"metallicFactor":1.0,
			"roughnessFactor":0.44999998807907107
		},
		"normalTexture":{
			"index":1,
			"scale":0.2
		},
		"name":"13007_Blue_Green_Reef_Chromis_v1",
		"emissiveFactor":[0.0,
		0.0,
		0.0],
		"alphaMode":"OPAQUE",
		"doubleSided":false
	}],
	"animations":[{
		"samplers":[{
			"input":3,
			"interpolation":"LINEAR",
			"output":4
		}],
		"channels":[{
			"sampler":0,
			"target":{
				"node":0,
				"path":"rotation"
			}
		}]
	}]
}