{
	"asset":{
		"version":"2.0",
		"generator":"Created using the official Cinema 4D glTF Exporter 1.000x284978"
	},
	"scenes":[{
		"nodes":[0]
	}],
	"nodes":[{
		"name":"Polygon (Copy)",
		"translation":[0.0,
		0.0,
		0.0],
		"rotation":[0.0,
		0.0,
		0.0,
		-1.0],
		"scale":[0.0020000000949949028,
		0.0020000000949949028,
		0.0020000000949949028],
		"mesh":0
	}],
	"meshes":[{
		"name":"Polygon (Copy)",
		"primitives":[{
			"attributes":{
				"TEXCOORD_0":3,
				"POSITION":1,
				"NORMAL":2
			},
			"indices":0,
			"material":0
		}]
	}],
	"textures":[{
		"sampler":0,
		"source":0
	}],
	"accessors":[{
		"bufferView":0,
		"type":"SCALAR",
		"componentType":5123,
		"max":[3500],
		"count":18012,
		"byteOffset":0,
		"min":[0]
	},
	{
		"bufferView":1,
		"type":"VEC3",
		"componentType":5126,
		"max":[17581.029296875,
		33621.6015625,
		22460.279296875],
		"count":3501,
		"byteOffset":0,
		"min":[-17564.75390625,
		-1008.646240234375,
		-93608.9609375]
	},
	{
		"bufferView":1,
		"type":"VEC3",
		"componentType":5126,
		"max":[0.9999063014984131,
		0.9999688267707825,
		0.9994062781333923],
		"count":3501,
		"byteOffset":12,
		"min":[-0.9996563196182251,
		-0.9999688267707825,
		-0.999625027179718]
	},
	{
		"bufferView":1,
		"type":"VEC2",
		"componentType":5126,
		"max":[0.9926518201828003,
		0.991463303565979],
		"count":3501,
		"byteOffset":24,
		"min":[0.004679267760366201,
		0.01274871826171875]
	}],
	"bufferViews":[{
		"buffer":0,
		"byteOffset":0,
		"byteLength":36024,
		"target":34963
	},
	{
		"buffer":0,
		"byteOffset":36024,
		"byteLength":112032,
		"target":34962,
		"byteStride":32
	}],
	"buffers":[{
		"uri":"data:application/octet-stream;base64,",
		"byteLength":148056
	}],
	"images":[{
		"uri":"data:image/jpeg;base64,"
	}],
	"samplers":[{
		"minFilter":9729,
		"magFilter":9729,
		"wrapS":10497,
		"wrapT":10497
	}],
	"materials":[{
		"pbrMetallicRoughness":{
			"baseColorTexture":{
				"index":0
			},
			"baseColorFactor":[0.8,
			0.8,
			0.8,
			1.0],
			"metallicFactor":0.0,
			"roughnessFactor":0.5
		},
		"emissiveFactor":[0.0,
		0.0,
		0.0],
		"alphaMode":"OPAQUE",
		"doubleSided":false,
		"name":"Mat"
	}]
}