{
  "accessors": [
    {
      "bufferView": 2,
      "componentType": 5126,
      "count": 15431,
      "max": [
        6.042773246765137,
        30.66476058959961,
        6.042773723602295
      ],
      "min": [
        -6.042774677276611,
        4.447783470153809,
        -6.042776107788086
      ],
      "type": "VEC3"
    },
    {
      "bufferView": 2,
      "byteOffset": 185172,
      "componentType": 5126,
      "count": 15431,
      "max": [
        1.0,
        1.0,
        1.0
      ],
      "min": [
        -1.0,
        -0.999999463558197,
        -1.0
      ],
      "type": "VEC3"
    },
    {
      "bufferView": 1,
      "componentType": 5126,
      "count": 15431,
      "max": [
        1.0,
        0.9960041642189026
      ],
      "min": [
        0.0,
        0.0
      ],
      "type": "VEC2"
    },
    {
      "bufferView": 0,
      "componentType": 5125,
      "count": 88578,
      "type": "SCALAR"
    }
  ],
  "asset": {
    "extras": {
      "author": "lais_moraes (https://sketchfab.com/lais_moraes)",
      "license": "CC-BY-4.0 (http://creativecommons.org/licenses/by/4.0/)",
      "source": "https://sketchfab.com/3d-models/butterbeer-32acf7579c984b4dbefee6b620ea9705",
      "title": "Butterbeer"
    },
    "generator": "Sketchfab-11.20.1",
    "version": "2.0"
  },
  "bufferViews": [
    {
      "buffer": 0,
      "byteLength": 354312,
      "name": "floatBufferViews",
      "target": 34963
    },
    {
      "buffer": 0,
      "byteLength": 123448,
      "byteOffset": 354312,
      "byteStride": 8,
      "name": "floatBufferViews",
      "target": 34962
    },
    {
      "buffer": 0,
      "byteLength": 370344,
      "byteOffset": 477760,
      "byteStride": 12,
      "name": "floatBufferViews",
      "target": 34962
    }
  ],
  "buffers": [
    {
      "byteLength": 848104,
      "uri": "scene.bin"
    }
  ],
  "extensionsUsed": [
    "KHR_materials_clearcoat"
  ],
  "images": [
    {
      "uri": "textures/phong1_baseColor.jpeg"
    }
  ],
  "materials": [
    {
      "doubleSided": true,
      "extensions": {
        "KHR_materials_clearcoat": {
          "clearcoatFactor": 0.21451610941879626,
          "clearcoatRoughnessFactor": 0.0
        }
      },
      "name": "phong1",
      "pbrMetallicRoughness": {
        "baseColorFactor": [
          0.9745377548352577,
          0.9745377548352577,
          0.9745377548352577,
          1.0
        ],
        "baseColorTexture": {
          "index": 0
        },
        "metallicFactor": 0.9076558500386092,
        "roughnessFactor": 0.1050729924788258
      }
    }
  ],
  "meshes": [
    {
      "name": "polySurface2_phong1_0",
      "primitives": [
        {
          "attributes": {
            "NORMAL": 1,
            "POSITION": 0,
            "TEXCOORD_0": 2
          },
          "indices": 3,
          "material": 0,
          "mode": 4
        }
      ]
    }
  ],
  "nodes": [
    {
      "children": [
        1
      ],
      "matrix": [
        1.0,
        0.0,
        0.0,
        0.0,
        0.0,
        2.220446049250313e-16,
        -1.0,
        0.0,
        0.0,
        1.0,
        2.220446049250313e-16,
        0.0,
        0.0,
        0.0,
        0.0,
        1.0
      ],
      "name": "Sketchfab_model"
    },
    {
      "children": [
        2
      ],
      "matrix": [
        1.0,
        0.0,
        0.0,
        0.0,
        0.0,
        0.0,
        1.0,
        0.0,
        0.0,
        -1.0,
        0.0,
        0.0,
        0.0,
        0.0,
        0.0,
        1.0
      ],
      "name": "b41f321ba24f45598cf6b69fb01a64da.fbx"
    },
    {
      "children": [
        3
      ],
      "name": "RootNode"
    },
    {
      "children": [
        4
      ],
      "name": "polySurface2"
    },
    {
      "mesh": 0,
      "name": "polySurface2_phong1_0"
    }
  ],
  "samplers": [
    {
      "magFilter": 9729,
      "minFilter": 9987,
      "wrapS": 10497,
      "wrapT": 10497
    }
  ],
  "scene": 0,
  "scenes": [
    {
      "name": "Sketchfab_Scene",
      "nodes": [
        0
      ]
    }
  ],
  "textures": [
    {
      "sampler": 0,
      "source": 0
    }
  ]
}
